Coordinates
version=1
nRows=8
nColumns=46
inDegrees=yes

Units are S.I. units (second, meters, Newtons, ...)
Angles are in degrees.

endheader
time	pelvis_tilt	pelvis_list	pelvis_rotation	pelvis_tx	pelvis_ty	pelvis_tz	bb_angle	bb_tx	bb_ty	bb_tz	hip_flexion_r	hip_adduction_r	hip_rotation_r	knee_angle_r	knee_angle_r_beta	ankle_angle_r	subtalar_angle_r	mtp_angle_r	crank_angle_r	hip_flexion_l	hip_adduction_l	hip_rotation_l	knee_angle_l	knee_angle_l_beta	ankle_angle_l	subtalar_angle_l	mtp_angle_l	crank_angle_l	lumbar_extension	lumbar_bending	lumbar_rotation	arm_flex_r	arm_add_r	arm_rot_r	elbow_flex_r	pro_sup_r	wrist_flex_r	wrist_dev_r	arm_flex_l	arm_add_l	arm_rot_l	elbow_flex_l	pro_sup_l	wrist_flex_l	wrist_dev_l
      5.00500000	    -22.98442845	     -3.82889724	     -1.08155635	      0.20725800	      1.04120874	     -0.21292325	      0.00000000	      0.50000000	      0.00000000	      0.25000000	     73.10918590	      0.02504354	      2.24064675	    106.98147443	      1.86717897	     -9.05881824	    -13.22702483	      0.00000000	      0.00000000	     51.74995776	     -6.30241854	      4.13119842	     40.04777177	      0.69896548	     12.16506568	    -11.88510954	      0.00000000	      0.00000000	    -56.69537210	     -0.38781153	      1.08056709	     68.99003642	    -23.81381848	     30.53449442	     85.66668939	     51.84423237	      0.00000000	      0.00000000	     63.62035815	    -22.39689335	     21.76037611	     92.45610412	     50.68527056	      0.00000000	      0.00000000
      5.01000000	    -23.21569649	     -4.35856329	     -1.68109221	      0.20707400	      1.04158112	     -0.21330475	      0.00000000	      0.50000000	      0.00000000	      0.25000000	     74.85894421	      0.57978789	      1.93302657	    108.39304101	      1.89181545	     -8.85079794	    -13.15764581	      0.00000000	      0.00000000	     50.33691425	     -7.25277131	      3.87384965	     37.82153026	      0.66011023	     10.91434250	    -10.79892648	      0.00000000	      0.00000000	    -56.47209414	     -0.09594265	      1.92378826	     69.32047049	    -23.76222878	     30.60240697	     85.69731712	     51.85963745	      0.00000000	      0.00000000	     63.37853007	    -22.50865243	     21.64204197	     92.39693200	     50.67711133	      0.00000000	      0.00000000
      5.01500000	    -23.38029499	     -4.78178241	     -2.24541247	      0.20692082	      1.04199554	     -0.21364339	      0.00000000	      0.50000000	      0.00000000	      0.25000000	     76.58987964	      1.05313933	      1.71134099	    109.73955914	      1.91531663	     -8.71761526	    -13.01577075	      0.00000000	      0.00000000	     48.91573434	     -8.12150243	      3.36424107	     35.76442543	      0.62420698	      9.64305101	     -9.77700161	      0.00000000	      0.00000000	    -56.32486177	      0.18275451	      2.72670859	     69.64524230	    -23.74082212	     30.72011976	     85.74493912	     51.88188843	      0.00000000	      0.00000000	     63.10028660	    -22.57169792	     21.47856378	     92.32356182	     50.66126042	      0.00000000	      0.00000000
      5.02000000	    -23.52961365	     -5.12413127	     -2.86763192	      0.20709127	      1.04251897	     -0.21404623	      0.00000000	      0.50000000	      0.00000000	      0.25000000	     78.26627433	      1.50426750	      1.54119346	    110.97044701	      1.93679967	     -8.55727829	    -12.83989875	      0.00000000	      0.00000000	     47.47134169	     -8.96130573	      2.66612180	     33.83709411	      0.59056870	      8.37323625	     -8.71763128	      0.00000000	      0.00000000	    -56.19941266	      0.36509736	      3.46014975	     69.97783521	    -23.75483152	     30.89453668	     85.83038829	     51.91600997	      0.00000000	      0.00000000	     62.73039762	    -22.57782898	     21.26756822	     92.22093242	     50.63723617	      0.00000000	      0.00000000
      5.02500000	    -23.52587593	     -5.09256507	     -3.74092262	      0.20727590	      1.04308415	     -0.21383343	      0.00000000	      0.50000000	      0.00000000	      0.25000000	     79.91075056	      2.11361856	      1.80148555	    112.18336368	      1.95796906	     -8.29167622	    -12.49825715	      0.00000000	      0.00000000	     45.85853696	     -9.75169643	      1.22659905	     32.12873011	      0.56075212	      7.25825868	     -7.48170429	      0.00000000	      0.00000000	    -56.21825521	      0.03070181	      3.99042799	     70.34468807	    -24.05793599	     31.57279999	     86.04538845	     52.03927381	      0.00000000	      0.00000000	     62.13106360	    -22.23921686	     20.52874193	     92.09396927	     50.57853389	      0.00000000	      0.00000000
      5.03000000	    -23.62432368	     -5.45778428	     -4.29678486	      0.20717151	      1.04335103	     -0.21418182	      0.00000000	      0.50000000	      0.00000000	      0.25000000	     81.56042421	      2.55999352	      1.58754345	    113.26265254	      1.97680621	     -7.71676779	    -12.21897027	      0.00000000	      0.00000000	     44.67431426	    -10.60348101	      0.29904314	     30.81837269	      0.53788207	      6.17960643	     -6.07537215	      0.00000000	      0.00000000	    -56.19762520	      0.30144362	      4.75732134	     71.02588938	    -24.61234957	     32.56215579	     86.44757751	     52.26312838	      0.00000000	      0.00000000	     61.55027769	    -21.75205108	     19.45490097	     92.11825111	     50.57219118	      0.00000000	      0.00000000
      5.03500000	    -23.82397713	     -5.75505443	     -4.89280876	      0.20742584	      1.04364273	     -0.21417224	      0.00000000	      0.50000000	      0.00000000	      0.25000000	     83.26459742	      3.00189811	      1.35112757	    114.17763375	      1.99277564	     -7.42753664	    -11.86045597	      0.00000000	      0.00000000	     43.63115616	    -11.45706206	     -0.85637669	     29.67738865	      0.51796815	      5.09494758	     -4.78919329	      0.00000000	      0.00000000	    -56.07115777	      0.41500764	      5.40735739	     71.21772396	    -24.63996031	     32.80193090	     86.59423869	     52.33175858	      0.00000000	      0.00000000	     61.08831878	    -21.78256108	     19.17181609	     92.10306480	     50.58315416	      0.00000000	      0.00000000
      5.04000000	    -24.04266064	     -6.01609669	     -5.20487750	      0.20697006	      1.04355317	     -0.21493925	      0.00000000	      0.50000000	      0.00000000	      0.25000000	     85.04565190	      3.08773218	      1.11212390	    115.01873380	      2.00745561	     -7.25274088	    -11.74394647	      0.00000000	      0.00000000	     42.87456140	    -11.99284837	     -1.68325740	     28.84874606	      0.50350560	      3.91128295	     -3.87552487	      0.00000000	      0.00000000	    -55.93524914	      0.78932987	      5.93057837	     71.57800867	    -24.58280275	     32.82856117	     86.71823183	     52.35410992	      0.00000000	      0.00000000	     60.97149416	    -21.87049881	     19.04081225	     92.07808482	     50.57625696	      0.00000000	      0.00000000
